<svg xmlns="http://www.w3.org/2000/svg" xmlns:xlink="http://www.w3.org/1999/xlink" width="500" zoomAndPan="magnify" viewBox="0 0 375 374.999991" height="500" preserveAspectRatio="xMidYMid meet" version="1.0"><defs><clipPath id="b030fb1c60"><path d="M 4 4 L 127 4 L 127 101 L 4 101 Z M 4 4 " clip-rule="nonzero"/></clipPath><clipPath id="ae37c62ba2"><path d="M 130.621094 15.878906 L 122.929688 100.539062 L 0.566406 89.417969 L 8.261719 4.757812 Z M 130.621094 15.878906 " clip-rule="nonzero"/></clipPath><clipPath id="8cccf60fab"><path d="M 126.921875 56.597656 L 122.929688 100.539062 L 4.476562 48.71875 L 8.46875 4.777344 Z M 126.921875 56.597656 " clip-rule="nonzero"/></clipPath><clipPath id="19a0d860d5"><path d="M 0.359375 0.558594 L 123 0.558594 L 123 96.558594 L 0.359375 96.558594 Z M 0.359375 0.558594 " clip-rule="nonzero"/></clipPath><clipPath id="c8a9bbbded"><path d="M 126.621094 11.878906 L 118.929688 96.539062 L -3.433594 85.417969 L 4.261719 0.757812 Z M 126.621094 11.878906 " clip-rule="nonzero"/></clipPath><clipPath id="b41f971cc3"><path d="M 122.921875 52.597656 L 118.929688 96.539062 L 0.476562 44.71875 L 4.46875 0.777344 Z M 122.921875 52.597656 " clip-rule="nonzero"/></clipPath><clipPath id="f60f4da580"><rect x="0" width="123" y="0" height="97"/></clipPath><clipPath id="da4f9f6eab"><path d="M 122.242188 0.152344 L 181.871094 0.152344 L 181.871094 100.582031 L 122.242188 100.582031 Z M 122.242188 0.152344 " clip-rule="nonzero"/></clipPath><clipPath id="e786713aab"><path d="M 0.71875 0.152344 L 59.871094 0.152344 L 59.871094 100.558594 L 0.71875 100.558594 Z M 0.71875 0.152344 " clip-rule="nonzero"/></clipPath><clipPath id="f1316aba21"><rect x="0" width="60" y="0" height="101"/></clipPath><clipPath id="236b831895"><path d="M 58 82 L 181 82 L 181 179 L 58 179 Z M 58 82 " clip-rule="nonzero"/></clipPath><clipPath id="f48d88be37"><path d="M 54.363281 167.105469 L 62.058594 82.445312 L 184.421875 93.566406 L 176.726562 178.226562 Z M 54.363281 167.105469 " clip-rule="nonzero"/></clipPath><clipPath id="174db27969"><path d="M 58.066406 126.386719 L 62.058594 82.445312 L 180.511719 134.265625 L 176.515625 178.207031 Z M 58.066406 126.386719 " clip-rule="nonzero"/></clipPath><clipPath id="2bff371cee"><path d="M 0 0.320312 L 122.519531 0.320312 L 122.519531 96.320312 L 0 96.320312 Z M 0 0.320312 " clip-rule="nonzero"/></clipPath><clipPath id="fbd5f502f7"><path d="M -3.636719 85.105469 L 4.058594 0.445312 L 126.421875 11.566406 L 118.726562 96.226562 Z M -3.636719 85.105469 " clip-rule="nonzero"/></clipPath><clipPath id="696a486698"><path d="M 0.0664062 44.386719 L 4.058594 0.445312 L 122.511719 52.265625 L 118.515625 96.207031 Z M 0.0664062 44.386719 " clip-rule="nonzero"/></clipPath><clipPath id="4cdddb5f77"><rect x="0" width="123" y="0" height="97"/></clipPath><clipPath id="03d12ec081"><path d="M 3.125 82.410156 L 62.75 82.410156 L 62.75 182.835938 L 3.125 182.835938 Z M 3.125 82.410156 " clip-rule="nonzero"/></clipPath><clipPath id="1f95b96d5e"><path d="M 0.125 0.410156 L 59.277344 0.410156 L 59.277344 100.835938 L 0.125 100.835938 Z M 0.125 0.410156 " clip-rule="nonzero"/></clipPath><clipPath id="7744ee811b"><rect x="0" width="60" y="0" height="101"/></clipPath><clipPath id="d37fe3ce17"><rect x="0" width="185" y="0" height="183"/></clipPath></defs><g transform="matrix(1, 0, 0, 1, 95, 96)"><g clip-path="url(#d37fe3ce17)"><g clip-path="url(#b030fb1c60)"><g clip-path="url(#ae37c62ba2)"><g clip-path="url(#8cccf60fab)"><g transform="matrix(1, 0, 0, 1, 4, 4)"><g clip-path="url(#f60f4da580)"><g clip-path="url(#19a0d860d5)"><g clip-path="url(#c8a9bbbded)"><g clip-path="url(#b41f971cc3)"><path fill="#ffffff" d="M 126.621094 11.878906 L 118.929688 96.539062 L -3.101562 85.449219 L 4.589844 0.789062 Z M 126.621094 11.878906 " fill-opacity="1" fill-rule="nonzero"/></g></g></g></g></g></g></g></g><g clip-path="url(#da4f9f6eab)"><g transform="matrix(1, 0, 0, 1, 122, 0)"><g clip-path="url(#f1316aba21)"><g clip-path="url(#e786713aab)"><path fill="#ffffff" d="M 60.347656 0.199219 L 60.335938 50.339844 L 60.320312 100.484375 C 40.292969 100.453125 20.269531 100.425781 0.242188 100.394531 C 20.277344 66.996094 40.3125 33.597656 60.347656 0.199219 " fill-opacity="1" fill-rule="nonzero"/></g></g></g></g><g clip-path="url(#236b831895)"><g clip-path="url(#f48d88be37)"><g clip-path="url(#174db27969)"><g transform="matrix(1, 0, 0, 1, 58, 82)"><g clip-path="url(#4cdddb5f77)"><g clip-path="url(#2bff371cee)"><g clip-path="url(#fbd5f502f7)"><g clip-path="url(#696a486698)"><path fill="#ffffff" d="M -3.636719 85.105469 L 4.058594 0.445312 L 126.089844 11.535156 L 118.394531 96.195312 Z M -3.636719 85.105469 " fill-opacity="1" fill-rule="nonzero"/></g></g></g></g></g></g></g></g><g clip-path="url(#03d12ec081)"><g transform="matrix(1, 0, 0, 1, 3, 82)"><g clip-path="url(#7744ee811b)"><g clip-path="url(#1f95b96d5e)"><path fill="#ffffff" d="M -0.351562 100.792969 L -0.339844 50.648438 L -0.324219 0.507812 C 19.699219 0.535156 39.726562 0.566406 59.753906 0.59375 C 39.71875 33.996094 19.683594 67.394531 -0.351562 100.792969 " fill-opacity="1" fill-rule="nonzero"/></g></g></g></g></g></g></svg>